<?xml version="1.0" standalone="no"?>
<!DOCTYPE svg PUBLIC "-//W3C//DTD SVG 20010904//EN"
 "http://www.w3.org/TR/2001/REC-SVG-20010904/DTD/svg10.dtd">
<svg version="1.0" xmlns="http://www.w3.org/2000/svg"
 width="700.000000pt" height="700.000000pt" viewBox="0 0 700.000000 700.000000"
 preserveAspectRatio="xMidYMid meet">
<metadata>
Created by potrace 1.14, written by Peter Selinger 2001-2017
</metadata>
<g transform="translate(0.000000,700.000000) scale(0.100000,-0.100000)"
fill="#000000" stroke="none">
<path d="M0 3500 l0 -3500 3500 0 3500 0 0 3500 0 3500 -3500 0 -3500 0 0
-3500z m6181 3043 c161 -55 292 -182 352 -340 l22 -58 3 -2615 c1 -1810 -1
-2631 -8 -2666 -39 -189 -204 -359 -397 -409 -50 -13 -390 -15 -2663 -15
-2361 0 -2611 1 -2660 16 -182 53 -319 192 -377 379 -17 58 -18 165 -18 2665
l0 2605 22 70 c68 212 236 357 448 385 33 4 1219 7 2635 6 l2575 -1 66 -22z"/>
<path d="M1120 3410 l0 -1640 280 0 280 0 2 568 3 567 1655 5 c910 3 1664 9
1675 12 11 4 58 14 105 23 398 75 690 277 829 577 96 203 123 460 75 697 -93
454 -468 749 -1044 820 -56 8 -711 11 -1972 11 l-1888 0 0 -1640z m3820 1136
c115 -22 236 -65 300 -106 104 -67 183 -176 216 -297 19 -71 21 -242 4 -315
-56 -240 -246 -382 -575 -427 -51 -8 -586 -11 -1641 -11 l-1564 0 0 583 c0
321 3 587 7 591 4 4 716 5 1583 4 1474 -4 1581 -5 1670 -22z"/>
</g>
</svg>
