<svg width="50" height="50" viewBox="0 0 50 50" fill="none" xmlns="http://www.w3.org/2000/svg">
<g clip-path="url(#clip0_708_23979)">
<path d="M8.85417 0H41.1458C46.0417 0 50 4.05983 50 9.0812V40.9188C50 45.9402 46.0417 50 41.1458 50H8.85417C3.95833 50 0 45.9402 0 40.9188V9.0812C0 4.05983 3.95833 0 8.85417 0Z" fill="#330000"/>
<path d="M24.1666 29.9146H16.4166L14.8333 34.936C14.7916 35.1283 14.625 35.2565 14.4375 35.2351H10.5208C10.2916 35.2351 10.2291 35.1069 10.2916 34.8505L17 15.0428C17.0625 14.8292 17.125 14.5941 17.2083 14.3377C17.2916 13.889 17.3333 13.4189 17.3333 12.9488C17.3125 12.842 17.3958 12.7351 17.5 12.7138H22.8958C23.0625 12.7138 23.1458 12.7779 23.1666 12.8847L30.7708 34.8933C30.8333 35.1283 30.7708 35.2351 30.5625 35.2351H26.2083C26.0625 35.2565 25.9166 35.1497 25.875 35.0001L24.1666 29.9146ZM17.625 25.577H22.9166C22.7916 25.1283 22.625 24.5941 22.4375 24.0386C22.25 23.4616 22.0625 22.842 21.875 22.201C21.6666 21.5386 21.4791 20.8975 21.2708 20.2351C21.0625 19.5727 20.875 18.9531 20.7083 18.3334C20.5416 17.7351 20.3958 17.1796 20.25 16.6668H20.2083C20.0208 17.5856 19.7916 18.5044 19.5 19.4232C19.1875 20.4488 18.875 21.5172 18.5416 22.5856C18.25 23.6753 17.9375 24.6796 17.625 25.577ZM35.4166 16.4531C34.7291 16.4745 34.0625 16.1967 33.5625 15.7052C33.0833 15.171 32.8333 14.4659 32.8541 13.7394C32.8333 13.0129 33.1041 12.3292 33.6041 11.8377C34.1041 11.3463 34.7708 11.0898 35.4583 11.0898C36.2708 11.0898 36.8958 11.3463 37.3541 11.8377C37.8125 12.3505 38.0625 13.0343 38.0416 13.7394C38.0625 14.4659 37.8125 15.171 37.3125 15.7052C36.8333 16.218 36.125 16.4958 35.4166 16.4531ZM33.0833 35.0001V18.5471C33.0833 18.3334 33.1666 18.248 33.3541 18.248H37.4791C37.6666 18.248 37.75 18.3548 37.75 18.5471V35.0001C37.75 35.2351 37.6666 35.342 37.4791 35.342H33.3958C33.1875 35.342 33.0833 35.2138 33.0833 35.0001V35.0001Z" fill="#FF9A00"/>
</g>
<defs>
<clipPath id="clip0_708_23979">
<rect width="50" height="50" fill="white"/>
</clipPath>
</defs>
</svg>
