<svg width="50" height="50" viewBox="0 0 50 50" fill="none" xmlns="http://www.w3.org/2000/svg">
<g clip-path="url(#clip0_708_23987)">
<path d="M8.85417 0H41.1458C46.0417 0 50 4.05983 50 9.0812V40.9188C50 45.9402 46.0417 50 41.1458 50H8.85417C3.95833 50 0 45.9402 0 40.9188V9.0812C0 4.05983 3.95833 0 8.85417 0Z" fill="#001E36"/>
<path d="M11.25 35.0643V13.0771C11.25 12.9275 11.3125 12.8421 11.4583 12.8421C11.8125 12.8421 12.1458 12.8421 12.625 12.8207C13.125 12.7993 13.6458 12.7993 14.2083 12.778C14.7708 12.7566 15.375 12.7566 16.0208 12.7352C16.6667 12.7139 17.2917 12.7139 17.9167 12.7139C19.625 12.7139 21.0417 12.9275 22.2083 13.3763C23.25 13.7395 24.2083 14.3378 25 15.1284C25.6667 15.8122 26.1875 16.6455 26.5208 17.5643C26.8333 18.4617 27 19.3805 27 20.3421C27 22.1797 26.5833 23.6968 25.75 24.8934C24.9167 26.0899 23.75 26.9874 22.3958 27.5002C20.9792 28.0344 19.4167 28.2267 17.7083 28.2267C17.2083 28.2267 16.875 28.2267 16.6667 28.2053C16.4583 28.184 16.1667 28.184 15.7708 28.184V35.0429C15.7917 35.1925 15.6875 35.3207 15.5417 35.3421C15.5208 35.3421 15.5 35.3421 15.4583 35.3421H11.5C11.3333 35.3421 11.25 35.2566 11.25 35.0643ZM15.7917 16.966V24.1455C16.0833 24.1669 16.3542 24.1882 16.6042 24.1882H17.7083C18.5208 24.1882 19.3333 24.06 20.1042 23.8036C20.7708 23.6113 21.3542 23.2053 21.8125 22.6711C22.25 22.1369 22.4583 21.4104 22.4583 20.4703C22.4792 19.8079 22.3125 19.1455 21.9792 18.5686C21.625 18.013 21.125 17.5857 20.5208 17.3506C19.75 17.0301 18.9167 16.9019 18.0625 16.9233C17.5208 16.9233 17.0417 16.9233 16.6458 16.9446C16.2292 16.9233 15.9375 16.9446 15.7917 16.966Z" fill="#31A8FF"/>
<path d="M40 22.8422C39.375 22.5004 38.7084 22.2653 38 22.1157C37.2292 21.9448 36.4584 21.838 35.6667 21.838C35.25 21.8166 34.8125 21.8807 34.4167 21.9875C34.1459 22.0516 33.9167 22.2012 33.7709 22.4149C33.6667 22.5858 33.6042 22.7995 33.6042 22.9918C33.6042 23.1841 33.6876 23.3764 33.8126 23.5474C34.0001 23.7824 34.25 23.9747 34.5209 24.1243C35 24.3807 35.5001 24.6157 36.0001 24.8294C37.1251 25.214 38.2084 25.7482 39.2084 26.3893C39.8959 26.838 40.4584 27.4363 40.8542 28.1628C41.1876 28.8465 41.3542 29.5944 41.3334 30.3636C41.3542 31.3679 41.0625 32.3722 40.5209 33.2055C39.9375 34.0602 39.125 34.7226 38.1876 35.1072C37.1667 35.5559 35.9167 35.791 34.4167 35.791C33.4584 35.791 32.5209 35.7055 31.5834 35.5132C30.8542 35.385 30.125 35.1499 29.4584 34.8294C29.3125 34.744 29.2084 34.5944 29.2292 34.4234V30.7055C29.2292 30.6414 29.25 30.5559 29.3125 30.5132C29.375 30.4704 29.4376 30.4918 29.5001 30.5345C30.3126 31.026 31.1667 31.3679 32.0834 31.5816C32.875 31.7952 33.7084 31.9021 34.5417 31.9021C35.3334 31.9021 35.8959 31.7952 36.2709 31.6029C36.6042 31.4534 36.8334 31.0901 36.8334 30.7055C36.8334 30.4063 36.6667 30.1286 36.3334 29.8508C36 29.573 35.3126 29.2525 34.2917 28.8465C33.2292 28.4619 32.25 27.9491 31.3334 27.3081C30.6875 26.838 30.1459 26.2183 29.7501 25.4918C29.4167 24.8081 29.25 24.0602 29.2709 23.3123C29.2709 22.3935 29.5209 21.5175 29.9792 20.7269C30.5 19.8722 31.2709 19.1884 32.1667 18.761C33.1459 18.2482 34.3751 18.0132 35.8542 18.0132C36.7084 18.0132 37.5834 18.0773 38.4375 18.2055C39.0625 18.291 39.6667 18.4619 40.2292 18.6969C40.3126 18.7183 40.3959 18.8038 40.4376 18.8893C40.4584 18.9747 40.4792 19.0602 40.4792 19.1457V22.6286C40.4792 22.714 40.4375 22.7995 40.375 22.8422C40.1875 22.885 40.0834 22.885 40 22.8422Z" fill="#31A8FF"/>
</g>
<defs>
<clipPath id="clip0_708_23987">
<rect width="50" height="50" fill="white"/>
</clipPath>
</defs>
</svg>
