<svg width="50" height="50" viewBox="0 0 50 50" fill="none" xmlns="http://www.w3.org/2000/svg">
<path d="M25 0C11.1933 0 0 11.1933 0 25C0 38.8067 11.1933 50 25 50C38.8067 50 50 38.8067 50 25C50 11.1933 38.7909 0 25 0ZM25 40.1448C16.6247 40.1448 9.85516 33.3596 9.85516 25C9.85516 16.6247 16.6404 9.85516 25 9.85516C32.8243 9.85516 39.2475 15.7746 40.0661 23.3785H30.3054C29.6127 21.1115 27.5031 19.4584 25 19.4584C25 22.5283 22.5126 25 19.4584 25C19.4584 28.0699 21.9458 30.5416 25 30.5416C27.5031 30.5416 29.6127 28.8885 30.3054 26.6215H40.0661C39.2475 34.2254 32.8086 40.1448 25 40.1448Z" fill="url(#paint0_linear_708_24021)"/>
<defs>
<linearGradient id="paint0_linear_708_24021" x1="46.642" y1="12.4946" x2="3.34487" y2="37.4922" gradientUnits="userSpaceOnUse">
<stop stop-color="#FF7222"/>
<stop offset="0.5" stop-color="#FE4B46"/>
<stop offset="1" stop-color="#FA1D73"/>
</linearGradient>
</defs>
</svg>
