<?xml version="1.0" encoding="utf-8"?>
<!-- Generator: Adobe Illustrator 26.5.0, SVG Export Plug-In . SVG Version: 6.00 Build 0)  -->
<svg version="1.1" id="Layer_1" xmlns="http://www.w3.org/2000/svg" xmlns:xlink="http://www.w3.org/1999/xlink" x="0px" y="0px"
	 viewBox="0 0 120.1 112.1" style="enable-background:new 0 0 120.1 112.1;" xml:space="preserve">
<style type="text/css">
	.st0{stroke:#000000;stroke-width:2;stroke-linecap:round;stroke-miterlimit:10;}
</style>
<g>
	<path d="M60.1,91.4c-19.9,0-36-16.2-36-36s16.2-36,36-36c19.9,0,36,16.2,36,36S79.9,91.4,60.1,91.4z M60.1,21.3
		c-18.8,0-34,15.3-34,34s15.3,34,34,34s34-15.3,34-34S78.8,21.3,60.1,21.3z"/>
	<path d="M69.6,50.8c-1.7,0-3.3-1.2-3.7-3L63.6,37c-0.4-2,0.9-4.1,2.9-4.5c1-0.2,2,0,2.8,0.5s1.4,1.4,1.6,2.4l2.3,10.7
		c0.2,1,0,2-0.5,2.8s-1.4,1.4-2.4,1.6C70.2,50.8,69.9,50.8,69.6,50.8z M67.9,47.4c0.2,1,1.2,1.6,2.1,1.4c0.5-0.1,0.9-0.4,1.1-0.8
		c0.3-0.4,0.3-0.9,0.2-1.3L69,36c-0.1-0.5-0.4-0.9-0.8-1.1c-0.4-0.3-0.9-0.3-1.3-0.2c-1,0.2-1.6,1.2-1.4,2.1L67.9,47.4z"/>
	<path d="M71.6,47.9l-2.9-13.5l1-0.2c1.3-0.3,2.6,0,3.8,0.7s1.9,1.8,2.2,3.1l0.8,3.8c0.6,2.7-1.1,5.3-3.8,5.9L71.6,47.9z M71.1,36.1
		l2,9.3c1-0.6,1.6-1.9,1.4-3.2l-0.8-3.8c-0.2-0.8-0.6-1.5-1.3-1.9C72,36.3,71.6,36.1,71.1,36.1z"/>
	<path d="M42.2,54.1c-2.3,0-4.4-1.6-4.9-3.9l-0.8-3.8c-0.6-2.7,1.1-5.3,3.8-5.9l1-0.2l2.9,13.5l-1,0.2
		C42.9,54.1,42.6,54.1,42.2,54.1z M39.8,42.9c-1,0.6-1.6,1.9-1.4,3.2l0.8,3.8c0.3,1.3,1.3,2.2,2.5,2.3L39.8,42.9z"/>
	<path d="M45.2,76.3l-1-0.1c-1.4-0.1-2.7-0.7-3.6-1.7s-1.4-2.4-1.3-3.8l0.2-4.1c0.1-1.4,0.7-2.7,1.7-3.6c1-0.9,2.4-1.4,3.8-1.3
		l1,0.1L45.2,76.3z M43.9,63.7c-0.5,0.1-1,0.4-1.3,0.7c-0.6,0.6-1,1.4-1.1,2.3l-0.2,4.1c0,0.9,0.3,1.7,0.8,2.4
		c0.4,0.4,0.8,0.7,1.3,0.9L43.9,63.7z"/>
	<path d="M76.3,77.7c-0.1,0-0.2,0-0.3,0l-1-0.1L75.8,63l1,0.1c1.4,0.1,2.7,0.7,3.6,1.7c0.9,1,1.4,2.4,1.3,3.8l-0.2,4.1
		c-0.1,1.4-0.7,2.7-1.7,3.6C78.8,77.2,77.6,77.7,76.3,77.7z M77.7,65.3l-0.5,10.3c0.5-0.1,1-0.4,1.3-0.7c0.6-0.6,1-1.4,1.1-2.3
		l0.2-4.1c0-0.9-0.3-1.7-0.8-2.4C78.6,65.8,78.1,65.5,77.7,65.3z"/>
	<path d="M73.1,80.1c-0.1,0-0.1,0-0.2,0c-1.1-0.1-2-0.5-2.7-1.3s-1.1-1.8-1-2.9l0.6-11.7c0.1-1.1,0.5-2,1.3-2.7s1.8-1.1,2.9-1
		c2.2,0.1,3.9,2,3.8,4.2l-0.6,11.7C77,78.4,75.2,80.1,73.1,80.1z M71.1,76L71.1,76c-0.1,1.1,0.8,2,1.9,2.1s2-0.8,2.1-1.9l0.6-11.7
		c0.1-1.1-0.8-2-1.9-2.1c-0.5,0-1,0.2-1.4,0.5c-0.4,0.4-0.6,0.8-0.7,1.4L71.1,76z"/>
	<path d="M45.7,55.9c-0.7,0-1.4-0.2-2-0.6c-0.8-0.5-1.4-1.4-1.6-2.4l-2.3-10.7c-0.2-1,0-2,0.5-2.8s1.4-1.4,2.4-1.6
		c2-0.4,4.1,0.9,4.5,2.9l2.3,10.7c0.2,1,0,2-0.5,2.8s-1.4,1.4-2.4,1.6C46.2,55.9,46,55.9,45.7,55.9z M43.4,39.6c-0.1,0-0.2,0-0.4,0
		c-0.5,0.1-0.9,0.4-1.1,0.8s-0.3,0.9-0.2,1.3L44,52.5c0.1,0.5,0.4,0.9,0.8,1.1c0.4,0.3,0.9,0.3,1.3,0.2c0.5-0.1,0.9-0.4,1.1-0.8
		s0.3-0.9,0.2-1.3L45.1,41C45,40.2,44.2,39.6,43.4,39.6z"/>
	<path d="M48.5,78.8L48.5,78.8l-2.6-0.1c-0.7,0-1.4-0.4-1.9-0.9s-0.7-1.2-0.7-2L44,61.6c0.1-1.5,1.4-2.6,2.8-2.6l2.5,0.1
		c1.5,0.1,2.6,1.4,2.6,2.8l-0.2,4.7c0,0.6-0.5,1-1.1,0.9c-0.6,0-1-0.5-0.9-1.1l0.2-4.7c0-0.4-0.3-0.7-0.7-0.7h-2.5
		c-0.4,0-0.7,0.3-0.7,0.7L45.3,76c0,0.2,0.1,0.4,0.2,0.5c0.1,0.1,0.3,0.2,0.5,0.2l2.5,0.1c0.2,0,0.4-0.1,0.5-0.2s0.2-0.3,0.2-0.5
		l0.2-4.3c0-0.6,0.5-1,1.1-0.9c0.6,0,1,0.5,0.9,1.1l-0.2,4.3c0,0.7-0.4,1.4-0.9,1.9C49.8,78.5,49.1,78.8,48.5,78.8z"/>
	<path d="M46.7,44.7c-0.5,0-0.9-0.3-1-0.8s0.2-1.1,0.8-1.2l18.5-4c0.5-0.1,1.1,0.2,1.2,0.8c0.1,0.5-0.2,1.1-0.8,1.2l-18.5,4
		C46.9,44.7,46.8,44.7,46.7,44.7z"/>
	<path d="M47.8,49.5c-0.5,0-0.9-0.3-1-0.8s0.2-1.1,0.8-1.2l18.5-4c0.5-0.1,1.1,0.2,1.2,0.8c0.1,0.5-0.2,1.1-0.8,1.2l-18.5,4
		C47.9,49.5,47.8,49.5,47.8,49.5z"/>
	<path d="M70.3,73.9L70.3,73.9l-21-1.1l0.4-7.2l20.9,1.1c0.6,0,1,0.5,0.9,1.1c0,0.6-0.5,1-1.1,0.9l-18.9-1l-0.2,3.2l18.9,1
		c0.6,0,1,0.5,0.9,1.1C71.3,73.5,70.8,73.9,70.3,73.9z"/>
	<path class="st0" d="M48.9,4.3"/>
</g>
</svg>
