<?xml version="1.0" encoding="utf-8"?>
<!-- Generator: Adobe Illustrator 25.4.5, SVG Export Plug-In . SVG Version: 6.00 Build 0)  -->
<svg version="1.1" id="Layer_1" xmlns="http://www.w3.org/2000/svg" xmlns:xlink="http://www.w3.org/1999/xlink" x="0px" y="0px"
	 viewBox="0 0 120.1 112.1" style="enable-background:new 0 0 120.1 112.1;" xml:space="preserve">
<style type="text/css">
	.st0{display:none;}
	.st1{display:inline;}
	.st2{fill:none;stroke:#000000;stroke-width:2;stroke-linecap:round;stroke-miterlimit:10;}
	.st3{stroke:#000000;stroke-width:0.2;stroke-miterlimit:10;}
	.st4{display:inline;fill:none;stroke:#1D1D1B;stroke-width:3;stroke-linecap:round;stroke-miterlimit:10;}
	.st5{fill:#1D1D1B;}
	.st6{display:inline;fill:none;stroke:#1D1D1B;stroke-width:2;stroke-linecap:round;stroke-miterlimit:10;}
	.st7{fill:#010202;}
	.st8{stroke:#000000;stroke-width:2;stroke-linecap:round;stroke-miterlimit:10;}
</style>
<g id="TXT">
</g>
<g id="Layer_3" class="st0">
	<g class="st1">
		<circle id="Oval_00000132051091905505229190000016913178150818410410_" class="st2" cx="60" cy="56" r="35"/>
		<g>
			<path class="st3" d="M46.8,63.8H41c-0.5,0-1-0.4-1-0.9V48.4c0-0.5,0.4-0.9,1-0.9h5c2.5,0,5,1.3,5,4.2c0,1.8-0.9,3-2.1,3.6v0
				c2.3,0.5,3.5,2,3.5,4.2C52.2,62.5,49.6,63.8,46.8,63.8z M45.6,49h-3.7v5.7h4c1.6,0,3-0.8,3-2.9C49,50,47.4,49,45.6,49z
				 M46.8,56.3h-4.9v6h4.5c2,0,3.8-0.7,3.8-3C50.3,57.6,49.2,56.3,46.8,56.3z"/>
			<path class="st3" d="M61.9,47.5c1.4,0,2.6,0.3,3.8,1.2c1.2,0.9,1.9,2.4,1.9,4.2c0,1.8-0.8,3.4-2.1,4.3c-1.2,0.8-2.5,1-3.9,1h-4.5
				v4.9c0,0.5-0.4,0.9-1,0.9s-1-0.4-1-0.9V48.4c0-0.5,0.4-0.9,1-0.9H61.9z M64.2,49.9c-0.7-0.5-1.6-0.7-2.6-0.7h-4.4v7.4h4.2
				c1,0,2-0.1,2.8-0.7c0.9-0.6,1.5-1.7,1.5-3C65.6,51.5,65.1,50.5,64.2,49.9z"/>
			<path class="st3" d="M78.4,59.8h-7.8l-1.5,3.6c-0.2,0.4-0.4,0.7-1,0.7c-0.6,0-0.9-0.4-0.9-0.9c0-0.1,0.1-0.3,0.1-0.5l5.8-14.4
				c0.2-0.5,0.6-1,1.3-1c0.8,0,1.1,0.4,1.3,1l5.7,14.4c0.1,0.1,0.1,0.4,0.1,0.5c0,0.5-0.4,0.9-1,0.9c-0.5,0-0.8-0.2-1-0.7L78.4,59.8
				z M71.1,58.2h6.8l-3.4-8.5L71.1,58.2z"/>
		</g>
		<line class="st2" x1="48.2" y1="67.9" x2="35.3" y2="80.8"/>
		<line class="st2" x1="84.8" y1="31.3" x2="70.9" y2="45.2"/>
	</g>
</g>
<g class="st0">
	<path class="st4" d="M60,28.9"/>
	<g class="st1">
		<g>
			<path class="st5" d="M71.1,76.3c-6.4,0-11.7-5.2-11.7-11.7S64.7,53,71.1,53s11.7,5.2,11.7,11.7S77.6,76.3,71.1,76.3z M71.1,55
				c-5.3,0-9.7,4.3-9.7,9.7s4.3,9.7,9.7,9.7s9.7-4.3,9.7-9.7S76.5,55,71.1,55z"/>
			<path class="st5" d="M73.7,54.5l-1.8-1c0.8-1.4,1.2-3,1.2-4.6c0-5.3-4.3-9.7-9.7-9.7c-5.3,0-9.7,4.3-9.7,9.7
				c0,1.3,0.2,2.5,0.7,3.7l-1.8,0.8c-0.6-1.4-0.9-2.9-0.9-4.5c0-6.4,5.2-11.7,11.7-11.7c6.4,0,11.7,5.2,11.7,11.7
				C75.1,50.9,74.6,52.8,73.7,54.5z"/>
			<path class="st5" d="M51.6,75.3c-6.4,0-11.7-5.2-11.7-11.7c0-6.4,5.2-11.7,11.7-11.7c0.6,0,1.3,0.1,1.9,0.2
				c3.9,0.7,7.3,3.4,8.9,7.1c0.1,0.1,0.1,0.2,0.1,0.3l-1.9,0.7c0-0.1-0.1-0.2-0.1-0.3c-1.3-3.1-4.1-5.3-7.3-5.9
				c-0.5-0.1-1.1-0.1-1.6-0.1c-5.3,0-9.7,4.3-9.7,9.7c0,5.3,4.3,9.7,9.7,9.7c3.7,0,7-2,8.6-5.3l1.8,0.9C60,72.8,56,75.3,51.6,75.3z"
				/>
			<path class="st5" d="M75.7,61.5c-0.2,0-0.5-0.1-0.6-0.2c-2.6-2.2-5.2-2.5-7.9-0.9c-0.5,0.3-1.1,0.1-1.4-0.4
				c-0.3-0.5-0.1-1.1,0.4-1.4c3.5-2,7-1.7,10.2,1.1c0.4,0.4,0.5,1,0.1,1.4C76.3,61.4,76,61.5,75.7,61.5z"/>
			<path class="st5" d="M67,46.4c-0.2,0-0.4-0.1-0.6-0.2c-2.1-1.7-4.1-1.9-6.2-0.7c-0.5,0.3-1.1,0.1-1.4-0.4
				c-0.3-0.5-0.1-1.1,0.4-1.4c2.9-1.6,5.8-1.3,8.5,0.9c0.4,0.3,0.5,1,0.1,1.4C67.5,46.2,67.2,46.4,67,46.4z"/>
			<path class="st5" d="M51.3,68.6c0,0-0.1,0-0.1,0c-0.5-0.1-0.9-0.6-0.9-1.1l0.9-8.1c0.1-0.5,0.5-1,1.1-0.9
				c0.5,0.1,0.9,0.6,0.9,1.1l-0.9,8.1C52.2,68.2,51.8,68.6,51.3,68.6z"/>
			<path class="st5" d="M55.3,65.1c0,0-0.1,0-0.2,0L48,64c-0.5-0.1-0.9-0.6-0.8-1.1c0.1-0.5,0.6-0.9,1.1-0.8l7.1,1.1
				c0.5,0.1,0.9,0.6,0.8,1.1C56.2,64.8,55.8,65.1,55.3,65.1z"/>
			<path class="st5" d="M68.8,70.6c-0.2,0-0.3,0-0.5-0.1c-0.5-0.3-0.7-0.9-0.4-1.3l2.8-5.5c0.3-0.5,0.9-0.7,1.3-0.4
				c0.5,0.3,0.7,0.9,0.4,1.3L69.7,70C69.5,70.4,69.1,70.6,68.8,70.6z"/>
			<path class="st5" d="M73,68.9c-0.1,0-0.3,0-0.4-0.1l-6-2.7c-0.5-0.2-0.7-0.8-0.5-1.3c0.2-0.5,0.8-0.7,1.3-0.5l6,2.7
				c0.5,0.2,0.7,0.8,0.5,1.3C73.7,68.7,73.3,68.9,73,68.9z"/>
			<path class="st5" d="M44,57.1c-0.3,0-0.7-0.2-0.9-0.5c-4-7.1-4.7-13.3-1.9-18.3c0.5-0.9,1.5-1.3,2.5-0.9c2.5,1,4.1,2.4,5.5,3.6
				c3.3,3.1,5,7.3,4.6,11.7c0,0.5-0.5,1-1.1,0.9c-0.5,0-1-0.5-0.9-1c0,0,0,0,0,0c0.3-3.8-1.2-7.5-4-10.1c-1.3-1.2-2.7-2.4-4.8-3.2
				c-2.4,4.4-1.8,9.8,1.9,16.4c0.3,0.5,0.1,1.1-0.4,1.4C44.3,57.1,44.1,57.1,44,57.1z"/>
			<path class="st5" d="M55,43.4c-0.5,0-1-0.4-1-1c-0.1-2.4-0.9-4.5-2.4-6.6c-1.3,1.8-2.1,3.7-2.1,5.9c0,0.6-0.5,1-1,1
				c-0.6,0-1-0.5-1-1c0.1-2.7,1-5.1,2.7-7.3c0.4-0.4,0.9-0.7,1.5-0.7c0.6,0,1.1,0.3,1.4,0.7c1.9,2.4,2.9,5,3,7.9
				C56,42.9,55.6,43.4,55,43.4C55,43.4,55,43.4,55,43.4z M51.4,35.7C51.4,35.7,51.4,35.7,51.4,35.7C51.4,35.7,51.4,35.7,51.4,35.7z"
				/>
		</g>
		<path d="M60.1,91.7c-19.9,0-36-16.2-36-36c0-19.9,16.2-36,36-36s36,16.2,36,36C96.1,75.6,79.9,91.7,60.1,91.7z M60.1,21.7
			c-18.8,0-34,15.3-34,34s15.3,34,34,34s34-15.3,34-34S78.8,21.7,60.1,21.7z"/>
	</g>
</g>
<g class="st0">
	<g class="st1">
		<path class="st5" d="M59.3,78.2c-0.9,0-1.8-0.2-2.6-0.7l-2-1.2c-0.5-0.3-1-0.4-1.6-0.4h-2c-2,0-3.7-1.1-4.5-2.9l-1-2.2
			c-0.3-0.7-1-1.3-1.7-1.6l-0.6-0.2c-2.2-0.8-3.5-3-3.3-5.3l0.2-1.8c0.1-0.7-0.1-1.4-0.5-2l-1.2-1.7c-1.2-1.8-1.2-4.1,0.1-5.9l0.7-1
			c0.5-0.6,0.7-1.4,0.6-2.2l-0.2-1.9c-0.3-2.5,1.2-4.8,3.7-5.5l0.4-0.1c0.8-0.2,1.5-0.8,1.9-1.5l1-1.9c0.9-1.7,2.6-2.8,4.6-2.7
			l2.6,0.1c0.6,0,1.3-0.2,1.8-0.5l1.3-0.9c1.8-1.3,4.2-1.2,5.9,0.2l1.3,1c0.7,0.6,1.6,0.8,2.5,0.6l0.6-0.1c2.3-0.5,4.7,0.7,5.7,2.9
			l0.6,1.4c0.3,0.7,0.9,1.3,1.6,1.6l1.6,0.6c2.1,0.8,3.3,3,3.1,5.2l-0.2,2.1c-0.1,0.8,0.2,1.6,0.7,2.3l0.9,1.1
			c1.4,1.6,1.6,3.9,0.6,5.7l-1.3,2.3c-0.2,0.4-0.4,0.9-0.4,1.5v2.1c0,2.1-1.2,3.9-3.1,4.6l-1.5,0.6c-0.7,0.3-1.3,0.8-1.6,1.5
			l-0.8,1.6c-1.1,2.3-3.7,3.4-6,2.6c-0.9-0.3-1.8-0.2-2.5,0.3L62,77.4C61.2,77.9,60.2,78.2,59.3,78.2z M51.1,37.4
			c-1.1,0-2.1,0.6-2.7,1.6l-1,1.9c-0.6,1.2-1.8,2.2-3.2,2.5l-0.4,0.1c-1.4,0.4-2.4,1.8-2.2,3.3l0.2,1.9c0.2,1.3-0.2,2.6-1,3.7
			l-0.7,1c-0.8,1-0.8,2.4-0.1,3.5l1.2,1.7c0.7,1,1,2.2,0.9,3.4L42,63.8c-0.2,1.4,0.7,2.7,2,3.2l0.6,0.2c1.3,0.5,2.3,1.4,2.9,2.6
			l1,2.2c0.5,1.1,1.6,1.8,2.7,1.8h2c0.9,0,1.8,0.3,2.6,0.7l2,1.2c1,0.6,2.2,0.6,3.2,0l2.6-1.7c1.3-0.8,2.8-1,4.2-0.6
			c1.4,0.5,3-0.2,3.6-1.6l0.8-1.6c0.5-1.1,1.5-2,2.7-2.5l1.5-0.6c1.1-0.5,1.9-1.5,1.9-2.8v-2.1c0-0.8,0.2-1.7,0.6-2.4l1.3-2.3
			c0.6-1.1,0.5-2.5-0.3-3.4L78.8,53c-0.9-1-1.3-2.4-1.2-3.8l0.2-2.1c0.1-1.3-0.6-2.6-1.8-3.1l-1.6-0.6c-1.2-0.5-2.2-1.4-2.7-2.6
			l-0.6-1.4c-0.6-1.3-2-2-3.4-1.7l-0.6,0.1c-1.5,0.3-3,0-4.2-0.9l-1.3-1c-1-0.8-2.5-0.9-3.6-0.1l-1.3,0.9c-0.9,0.6-1.9,0.9-3,0.9
			L51.1,37.4C51.2,37.4,51.1,37.4,51.1,37.4z"/>
		<path d="M60.1,70.5c-8.1,0-14.8-6.6-14.8-14.8s6.6-14.8,14.8-14.8s14.8,6.6,14.8,14.8S68.2,70.5,60.1,70.5z M60.1,42.9
			c-7,0-12.8,5.7-12.8,12.8S53,68.5,60.1,68.5s12.8-5.7,12.8-12.8S67.1,42.9,60.1,42.9z"/>
		<path d="M57.4,61.1L52.3,56c-0.4-0.4-0.4-1,0-1.4c0.4-0.4,1-0.4,1.4,0l3.7,3.7l7.7-7.3c0.4-0.4,1-0.4,1.4,0c0.4,0.4,0.4,1,0,1.4
			L57.4,61.1z"/>
	</g>
	<path class="st1" d="M60.1,91.7c-19.9,0-36-16.2-36-36c0-19.9,16.2-36,36-36s36,16.2,36,36C96.1,75.6,79.9,91.7,60.1,91.7z
		 M60.1,21.7c-18.8,0-34,15.3-34,34s15.3,34,34,34s34-15.3,34-34S78.8,21.7,60.1,21.7z"/>
</g>
<g class="st0">
	<g class="st1">
		<path class="st5" d="M68.9,75c-2.2,0-4.5-1.6-7.3-5l-0.1-0.1c-0.2-0.2-0.5-0.5-0.5-1.1V40.1c0-0.4,0.2-0.9,0.6-1.4
			c2-2.4,4.3-3.4,6-2.6c0.7,0.3,2.4,1.6,1.7,5.5c-0.1,0.3,0.1,0.5,0.2,0.6c0.1,0.1,0.3,0.2,0.5,0.1c0.3-0.1,0.7-0.3,1-0.4
			c1.8-0.7,3.3-1.4,4.5-0.6c1.1,0.7,1,2.3,1,2.8c1.8-0.1,3.4,0.8,4.2,2.3c0.8,1.6,0.6,3.5-0.6,4.9c0,0.1,0,0.1,0.1,0.2
			c1.7,0.7,2.8,2.2,3,4.2c0.3,2.4-0.8,4.9-2.9,6.5c0,0-0.1,0.1,0,0.1c1.2,1.5,1.4,3.4,0.5,5.2c-1.1,2.3-3.8,3.9-6.4,3.9
			c0,0,0,0-0.1,0c-1.5,2.4-3,3.6-4.8,3.8C69.1,75,69,75,68.9,75z M63,68.6L63,68.6c2.6,3.1,4.5,4.5,6.1,4.3c1.1-0.1,2.2-1,3.2-2.8
			c0.4-0.6,1.1-1,1.8-1c0,0,0,0,0,0c1.9,0,3.8-1.2,4.6-2.8c0.4-0.8,0.6-1.9-0.3-3.1c-0.3-0.4-0.5-1-0.4-1.5c0.1-0.6,0.4-1.1,0.8-1.4
			c1.6-1.2,2.4-3,2.2-4.7c-0.2-1.2-0.8-2.1-1.8-2.6c-0.6-0.3-1.1-0.8-1.2-1.5c-0.2-0.7,0-1.3,0.4-1.8c0.7-0.8,0.8-1.8,0.3-2.7
			c-0.3-0.7-1.1-1.3-2.2-1.2C76,46,75.4,45.8,75,45.4c-0.4-0.4-0.7-1-0.6-1.6c0-0.8-0.1-1-0.1-1c-0.3-0.1-1.7,0.5-2.5,0.8
			c-0.3,0.1-0.7,0.3-1,0.4c-0.9,0.3-1.8,0.2-2.6-0.4c-0.7-0.6-1.1-1.5-0.9-2.5c0.3-1.7,0.1-3-0.5-3.3c-0.7-0.3-2.2,0.3-3.6,2.1
			C63,40,63,40.1,63,40.2V68.6z M63,40.2L63,40.2L63,40.2z"/>
		<path class="st5" d="M52.6,76c-2,0-4.1-1.3-6.2-4c-0.2-0.2-0.5-0.4-0.8-0.4c-5.2,0-5.9-4.1-6.4-7.1c-0.1-0.5,0.3-1.1,0.8-1.2
			c0.5-0.1,1.1,0.3,1.2,0.8c0.6,3.4,1.1,5.5,4.4,5.4c0.9,0,1.8,0.4,2.3,1.1c1.8,2.3,3.5,3.4,4.9,3.3c1.5-0.1,3.1-1.7,4.6-4.6
			c0.1-0.1,0.1-0.3,0.1-0.5V40.2c0-0.1,0-0.3-0.1-0.4c-0.8-1.8-2.1-2.4-3-2.4c0,0,0,0,0,0c-0.7,0-1.3,0.4-1.7,1.2
			c-0.6,1.2-1.9,1.9-3.2,1.7c-3.1-0.5-4.1,1.7-4.7,3.8c-0.3,0.9-1,1.7-1.8,2c-1.1,0.4-1.6,1.2-1.8,1.8c-0.2,0.8-0.1,1.6,0.3,2.3
			c0.9,1.3,0.5,3.1-0.8,4.1c-2.1,1.6-2,3.2-1.5,4.4c0.9,2.2,3.6,3.8,5.9,3.4c2.5-0.4,4.1-3.1,4.4-7.6c0-0.6,0.5-1,1.1-0.9
			c0.6,0,1,0.5,0.9,1.1c-0.5,7.4-4,9.1-6.1,9.4c-3.2,0.5-6.8-1.5-8.1-4.6c-1-2.5-0.2-5,2.1-6.8c0.5-0.3,0.6-0.9,0.3-1.4
			c-0.8-1.2-1-2.7-0.6-4c0.4-1.4,1.5-2.5,3-3c0.3-0.1,0.5-0.4,0.6-0.7c0.5-1.6,1.8-6,7-5.2c0.4,0.1,0.8-0.2,1-0.5
			c0.7-1.5,2-2.3,3.5-2.3c0,0,0,0,0,0c1.9,0,3.7,1.4,4.8,3.5c0.2,0.4,0.3,0.8,0.3,1.2v28.7c0,0.5-0.1,1-0.3,1.4
			c-1.9,3.6-3.9,5.5-6.2,5.7C52.9,76,52.7,76,52.6,76z"/>
		<path class="st5" d="M47.8,49c-1,0-1.9-0.3-2.7-0.9c-1.4-1-2.1-2.6-2.1-4.6c0-0.6,0.4-1,1-1s1,0.4,1,1c0,1.3,0.5,2.3,1.3,2.9
			c0.7,0.5,1.7,0.6,2.6,0.3c0.5-0.2,1.1,0.1,1.3,0.6s-0.1,1.1-0.6,1.3C49,48.9,48.4,49,47.8,49z"/>
		<path class="st5" d="M74.7,63.9c-1.6,0-2.9-0.4-3.9-1.3c-1.6-1.4-2.3-3.7-2.3-6.9c0-0.6,0.4-1,1-1c0,0,0,0,0,0c0.6,0,1,0.4,1,1
			c0,1.8,0.3,4.2,1.7,5.4c0.8,0.7,2,1,3.6,0.8c0.5-0.1,1.1,0.3,1.1,0.9c0.1,0.5-0.3,1.1-0.9,1.1C75.5,63.9,75.1,63.9,74.7,63.9z"/>
		<g>
			<circle class="st5" cx="67.9" cy="48.9" r="1"/>
			<path class="st5" d="M67.9,50.9c-1.1,0-2-0.9-2-2s0.9-2,2-2s2,0.9,2,2S69,50.9,67.9,50.9z M67.9,48.9
				C67.9,48.9,67.9,49,67.9,48.9L67.9,48.9z"/>
		</g>
	</g>
	<path class="st1" d="M60.1,91.7c-19.9,0-36-16.2-36-36c0-19.9,16.2-36,36-36s36,16.2,36,36C96.1,75.5,79.9,91.7,60.1,91.7z
		 M60.1,21.6c-18.8,0-34,15.3-34,34s15.3,34,34,34s34-15.3,34-34S78.8,21.6,60.1,21.6z"/>
</g>
<g class="st0">
	<path class="st6" d="M59.5,63.7"/>
	<g class="st1">
		<path class="st5" d="M48.6,71.7h-4.7c-1.7,0-3.1-1.2-3.3-2.9l-2.3-19.1c-0.1-0.9,0.2-1.9,0.8-2.6s1.5-1.1,2.5-1.1h7
			c1.8,0,3.3,1.5,3.3,3.3v19.1C51.9,70.2,50.4,71.7,48.6,71.7z M41.6,48.1c-0.4,0-0.7,0.2-1,0.4s-0.4,0.6-0.3,1l2.3,19.1
			c0.1,0.6,0.6,1.1,1.3,1.1h4.7c0.7,0,1.3-0.6,1.3-1.3V49.4c0-0.7-0.6-1.3-1.3-1.3H41.6z"/>
		<path class="st5" d="M60.5,71.5c-2.2,0-4.2-0.1-6.1-0.3c-1.1-0.1-1.9-0.9-2.6-1.6c-0.4-0.4-0.8-0.8-1.2-0.9l-0.7-0.2l0.5-20
			l0.6-0.2c4.9-1.9,7.2-4.1,6.9-11.1c-0.1-1.2,0.4-2.2,1.3-2.6c1-0.5,2.3-0.4,3.5,0.5c2.4,1.7,4,4.4,4.4,7.4
			c0.2,1.9-0.1,3.8-0.9,5.4h10.1c1.3,0,2.5,0.4,3.3,1.2c1.4,1.2,1.2,2.5,1,3.1c-0.3,1.1-1.3,2-2.8,2.7c1.6,0.7,2.5,1.7,2.6,2.9
			c0,0.6-0.3,1.9-2.3,2.7c1.6,0.8,1.8,1.9,1.7,2.5c0,1.1-0.9,2.1-2.2,2.7c0.3,0.2,0.5,0.5,0.6,0.7c0.5,0.7,0.5,1.6,0,2.4
			c-0.9,1.7-3.7,2.6-7.5,2.6c-0.9,0-1.8,0.1-2.7,0.1C65.4,71.4,62.9,71.5,60.5,71.5z M51.9,67.2c0.4,0.3,0.8,0.6,1.2,1
			c0.5,0.5,1,1,1.4,1c3.9,0.4,8.5,0.2,13.4,0.1c0.9,0,1.8-0.1,2.8-0.1c3.9,0,5.5-1,5.8-1.5c0.1-0.2,0.1-0.3,0-0.4
			c-0.2-0.3-1-0.8-2.7-0.9c-0.3,0-0.6,0-1,0l-0.6,0l-0.6-1l0.6-1l0.6,0c0.4,0,0.7,0,1,0c2.7-0.2,3.9-1.2,4-1.6
			c0-0.3-1.1-1.3-4.7-1.5l-0.5,0l-0.6-1l0.6-1l0.6,0c4.1-0.2,5.3-1.3,5.3-1.6c0-0.5-1.6-1.7-5.1-1.7l-0.9,0L72.1,54l1-0.1
			c3.4-0.4,5.3-1.6,5.6-2.4c0-0.1,0.2-0.5-0.5-1.1c-0.5-0.5-1.2-0.7-2-0.7h-14l1.4-1.6c1.6-1.9,1.7-4.1,1.5-5.5
			c-0.3-2.4-1.6-4.6-3.6-6c-0.6-0.4-1.1-0.5-1.3-0.3c-0.2,0.1-0.3,0.6-0.2,0.8c0.3,7.8-2.5,10.7-7.5,12.8L51.9,67.2z"/>
		<g>
			<circle class="st5" cx="45.9" cy="66.9" r="0.9"/>
			<path class="st5" d="M45.9,68.8c-1.1,0-1.9-0.9-1.9-1.9s0.9-1.9,1.9-1.9s1.9,0.9,1.9,1.9S46.9,68.8,45.9,68.8z M45.9,66.8
				C45.8,66.8,45.8,66.8,45.9,66.8C45.8,67,46,67,45.9,66.8C46,66.8,45.9,66.8,45.9,66.8z"/>
		</g>
	</g>
	<path class="st1" d="M59.5,91.7c-19.9,0-36-16.2-36-36c0-19.9,16.2-36,36-36s36,16.2,36,36C95.5,75.5,79.4,91.7,59.5,91.7z
		 M59.5,21.6c-18.8,0-34,15.3-34,34s15.3,34,34,34s34-15.3,34-34S78.3,21.6,59.5,21.6z"/>
</g>
<g class="st0">
	<path class="st1" d="M59.5,92.1c-19.9,0-36-16.2-36-36s16.2-36,36-36s36,16.2,36,36S79.4,92.1,59.5,92.1z M59.5,22
		c-18.8,0-34,15.3-34,34s15.3,34,34,34s34-15.3,34-34S78.3,22,59.5,22z"/>
	<g class="st1">
		<path class="st7" d="M59.5,78.3l-0.5-0.2C41.9,69.9,41.2,57.6,42,41l0.1-1l1,0.1c5.4,0.4,10.6-1.6,15.7-5.9l0.6-0.5l0.6,0.5
			c5.2,4.1,10.6,6.1,15.9,5.9l1,0l0,1C78.1,66.5,72,71.3,60,78L59.5,78.3z M44,42.1C43.2,57.7,44.1,68.6,59.5,76
			c10.3-5.8,16.5-9.7,15.7-34c-5.3,0-10.5-2-15.6-5.8C54.5,40.2,49.3,42.2,44,42.1z"/>
		<path d="M58.1,61.2c-0.3,0-0.5-0.1-0.7-0.3l-6.4-7c-0.4-0.4-0.3-1,0.1-1.4c0.4-0.4,1-0.3,1.4,0.1l5.6,6.2l10.5-11.9
			c0.4-0.4,1-0.5,1.4-0.1c0.4,0.4,0.5,1,0.1,1.4L58.8,60.9C58.7,61.1,58.4,61.2,58.1,61.2C58.1,61.2,58.1,61.2,58.1,61.2z"/>
	</g>
</g>
<g class="st0">
	<path class="st1" d="M60.1,92c-19.9,0-36-16.2-36-36s16.2-36,36-36c19.9,0,36,16.2,36,36S79.9,92,60.1,92z M60.1,21.9
		c-18.8,0-34,15.3-34,34s15.3,34,34,34s34-15.3,34-34S78.8,21.9,60.1,21.9z"/>
	<path class="st1" d="M60.1,49.7c-5.1,0-9.2-4.1-9.2-9.2c0-5.1,4.1-9.2,9.2-9.2c5.1,0,9.2,4.1,9.2,9.2
		C69.2,45.6,65.1,49.7,60.1,49.7z M60.1,33.3c-3.9,0-7.2,3.2-7.2,7.2c0,3.9,3.2,7.2,7.2,7.2s7.2-3.2,7.2-7.2
		C67.2,36.5,64,33.3,60.1,33.3z"/>
	<path class="st1" d="M73.2,64.7H47.4l0-1c0.1-6.1,1.1-12.7,8-15.2c3-1.1,6.5-0.9,9.6,0.3c5.6,2.3,8.4,7.3,8.1,14.9L73.2,64.7z
		 M49.4,62.7h21.8c0-6.2-2.3-10.1-6.9-12c-2.7-1.1-5.6-1.2-8.2-0.3C51.7,52,49.7,55.6,49.4,62.7z"/>
	<path class="st1" d="M46.3,76.1c-0.2,0-0.4-0.1-0.6-0.2l-1.9-1.3l-2.1,0.9c-0.4,0.1-0.8,0.1-1.1-0.2c-0.3-0.3-0.4-0.7-0.3-1
		l0.6-2.2l-1.5-1.8c-0.3-0.3-0.3-0.7-0.1-1.1c0.2-0.4,0.5-0.6,0.9-0.6l2.3-0.1l1.2-1.9c0.2-0.3,0.6-0.5,1-0.5c0.4,0,0.7,0.3,0.9,0.7
		l0.8,2.2l2.2,0.6c0.4,0.1,0.7,0.4,0.7,0.8s-0.1,0.8-0.4,1l-1.8,1.4l0.1,2.3c0,0.4-0.2,0.8-0.5,1C46.6,76,46.4,76.1,46.3,76.1z
		 M46.5,74.6L46.5,74.6L46.5,74.6z M44,74.5L44,74.5C44,74.5,44,74.5,44,74.5z M43.8,73c0.2,0,0.4,0.1,0.6,0.2l1.3,0.9l-0.1-1.6
		c0-0.3,0.1-0.7,0.4-0.9l1.2-1l-1.5-0.4c-0.3-0.1-0.6-0.3-0.7-0.6l-0.5-1.5l-0.9,1.3c-0.2,0.3-0.5,0.5-0.8,0.5L41.2,70l1,1.2
		c0.2,0.3,0.3,0.6,0.2,0.9L42,73.7l1.5-0.6C43.6,73.1,43.7,73,43.8,73z M46.9,72.8L46.9,72.8C46.9,72.8,46.9,72.8,46.9,72.8z
		 M41,71.8C41,71.8,41,71.8,41,71.8L41,71.8z"/>
	<path class="st1" d="M62.2,80.3c-0.2,0-0.4-0.1-0.6-0.2l-1.9-1.3l-2.1,0.9c-0.4,0.1-0.8,0.1-1.1-0.2c-0.3-0.3-0.4-0.7-0.3-1
		l0.6-2.2l-1.5-1.8c-0.3-0.3-0.3-0.7-0.1-1.1c0.2-0.4,0.5-0.6,0.9-0.6l2.3-0.1l1.2-1.9c0.2-0.3,0.6-0.5,1-0.5c0.4,0,0.7,0.3,0.9,0.7
		l0.8,2.2l2.2,0.6c0.4,0.1,0.7,0.4,0.7,0.8c0.1,0.4-0.1,0.8-0.4,1l-1.8,1.4l0.1,2.3c0,0.4-0.2,0.8-0.5,1
		C62.6,80.3,62.4,80.3,62.2,80.3z M62.5,78.9L62.5,78.9L62.5,78.9z M59.5,78.7C59.5,78.7,59.5,78.7,59.5,78.7L59.5,78.7z M59.8,77.3
		c0.2,0,0.4,0.1,0.6,0.2l1.3,0.9l-0.1-1.6c0-0.3,0.1-0.7,0.4-0.9l1.3-1l-1.5-0.4c-0.3-0.1-0.6-0.3-0.7-0.6l-0.5-1.5l-0.9,1.3
		c-0.2,0.3-0.5,0.5-0.8,0.5l-1.6,0.1l1,1.2c0.2,0.3,0.3,0.6,0.2,0.9L57.9,78l1.5-0.6C59.5,77.3,59.7,77.3,59.8,77.3z M57,76.5
		C57,76.5,57,76.5,57,76.5L57,76.5z"/>
	<path class="st1" d="M77.8,76.1c-0.2,0-0.4-0.1-0.6-0.2v0l-1.9-1.3l-2.1,0.9c-0.4,0.1-0.8,0.1-1.1-0.2c-0.3-0.3-0.4-0.7-0.3-1
		l0.6-2.2L71,70.2c-0.3-0.3-0.3-0.7-0.1-1.1s0.5-0.6,0.9-0.6l2.3-0.1l1.2-1.9c0.2-0.3,0.6-0.5,1-0.5c0.4,0,0.7,0.3,0.9,0.7l0.8,2.2
		l2.2,0.6c0.4,0.1,0.7,0.4,0.7,0.8c0.1,0.4-0.1,0.8-0.4,1l-1.8,1.4l0.1,2.3c0,0.4-0.2,0.8-0.5,1C78.2,76,78,76.1,77.8,76.1z
		 M75.6,74.5L75.6,74.5C75.6,74.5,75.6,74.5,75.6,74.5z M75.4,73c0.2,0,0.4,0.1,0.6,0.2l1.3,0.9l-0.1-1.6c0-0.3,0.1-0.7,0.4-0.9
		l1.2-1l-1.5-0.4c-0.3-0.1-0.6-0.3-0.7-0.6l-0.5-1.5l-0.9,1.3c-0.2,0.3-0.5,0.5-0.8,0.5L72.8,70l1,1.2c0.2,0.3,0.3,0.6,0.2,0.9
		l-0.4,1.5l1.5-0.6C75.2,73.1,75.3,73,75.4,73z M78.5,72.8L78.5,72.8C78.5,72.8,78.5,72.8,78.5,72.8z M72.6,71.8
		C72.6,71.8,72.6,71.8,72.6,71.8L72.6,71.8z"/>
</g>
<g>
	<path d="M60.1,91.4c-19.9,0-36-16.2-36-36s16.2-36,36-36c19.9,0,36,16.2,36,36S79.9,91.4,60.1,91.4z M60.1,21.3
		c-18.8,0-34,15.3-34,34s15.3,34,34,34s34-15.3,34-34S78.8,21.3,60.1,21.3z"/>
	<path d="M69.6,50.8c-1.7,0-3.3-1.2-3.7-3L63.6,37c-0.4-2,0.9-4.1,2.9-4.5c1-0.2,2,0,2.8,0.5c0.8,0.5,1.4,1.4,1.6,2.4l2.3,10.7
		c0.2,1,0,2-0.5,2.8c-0.5,0.8-1.4,1.4-2.4,1.6C70.2,50.8,69.9,50.8,69.6,50.8z M67.9,47.4c0.2,1,1.2,1.6,2.1,1.4
		c0.5-0.1,0.9-0.4,1.1-0.8c0.3-0.4,0.3-0.9,0.2-1.3l-2.3-10.7c-0.1-0.5-0.4-0.9-0.8-1.1c-0.4-0.3-0.9-0.3-1.3-0.2
		c-1,0.2-1.6,1.2-1.4,2.1L67.9,47.4z"/>
	<path d="M71.6,47.9l-2.9-13.5l1-0.2c1.3-0.3,2.6,0,3.8,0.7s1.9,1.8,2.2,3.1l0.8,3.8c0.6,2.7-1.1,5.3-3.8,5.9L71.6,47.9z M71.1,36.1
		l2,9.3c1-0.6,1.6-1.9,1.4-3.2l-0.8-3.8c-0.2-0.8-0.6-1.5-1.3-1.9C72,36.3,71.6,36.1,71.1,36.1z"/>
	<path d="M42.2,54.1c-2.3,0-4.4-1.6-4.9-3.9l-0.8-3.8c-0.6-2.7,1.1-5.3,3.8-5.9l1-0.2l2.9,13.5l-1,0.2
		C42.9,54.1,42.6,54.1,42.2,54.1z M39.8,42.9c-1,0.6-1.6,1.9-1.4,3.2l0.8,3.8c0.3,1.3,1.3,2.2,2.5,2.3L39.8,42.9z"/>
	<path d="M45.2,76.3l-1-0.1c-1.4-0.1-2.7-0.7-3.6-1.7s-1.4-2.4-1.3-3.8l0.2-4.1c0.1-1.4,0.7-2.7,1.7-3.6c1-0.9,2.4-1.4,3.8-1.3
		l1,0.1L45.2,76.3z M43.9,63.7c-0.5,0.1-1,0.4-1.3,0.7c-0.6,0.6-1,1.4-1.1,2.3l-0.2,4.1c0,0.9,0.3,1.7,0.8,2.4
		c0.4,0.4,0.8,0.7,1.3,0.9L43.9,63.7z"/>
	<path d="M76.3,77.7c-0.1,0-0.2,0-0.3,0l-1-0.1L75.8,63l1,0.1c1.4,0.1,2.7,0.7,3.6,1.7c0.9,1,1.4,2.4,1.3,3.8l-0.2,4.1
		c-0.1,1.4-0.7,2.7-1.7,3.6C78.8,77.2,77.6,77.7,76.3,77.7z M77.7,65.3l-0.5,10.3c0.5-0.1,1-0.4,1.3-0.7c0.6-0.6,1-1.4,1.1-2.3
		l0.2-4.1c0-0.9-0.3-1.7-0.8-2.4C78.6,65.8,78.1,65.5,77.7,65.3z"/>
	<path d="M73.1,80.1c-0.1,0-0.1,0-0.2,0c-1.1-0.1-2-0.5-2.7-1.3c-0.7-0.8-1.1-1.8-1-2.9l0.6-11.7c0.1-1.1,0.5-2,1.3-2.7
		c0.8-0.7,1.8-1.1,2.9-1c2.2,0.1,3.9,2,3.8,4.2l-0.6,11.7C77,78.4,75.2,80.1,73.1,80.1z M71.1,76L71.1,76c-0.1,1.1,0.8,2,1.9,2.1
		c1.1,0.1,2-0.8,2.1-1.9l0.6-11.7c0.1-1.1-0.8-2-1.9-2.1c-0.5,0-1,0.2-1.4,0.5c-0.4,0.4-0.6,0.8-0.7,1.4L71.1,76z"/>
	<path d="M45.7,55.9c-0.7,0-1.4-0.2-2-0.6c-0.8-0.5-1.4-1.4-1.6-2.4l-2.3-10.7c-0.2-1,0-2,0.5-2.8c0.5-0.8,1.4-1.4,2.4-1.6
		c2-0.4,4.1,0.9,4.5,2.9l2.3,10.7c0.2,1,0,2-0.5,2.8s-1.4,1.4-2.4,1.6C46.2,55.9,46,55.9,45.7,55.9z M43.4,39.6c-0.1,0-0.2,0-0.4,0
		c-0.5,0.1-0.9,0.4-1.1,0.8s-0.3,0.9-0.2,1.3L44,52.5c0.1,0.5,0.4,0.9,0.8,1.1c0.4,0.3,0.9,0.3,1.3,0.2c0.5-0.1,0.9-0.4,1.1-0.8
		s0.3-0.9,0.2-1.3L45.1,41C45,40.2,44.2,39.6,43.4,39.6z"/>
	<path d="M48.5,78.8c0,0-0.1,0-0.1,0l-2.5-0.1c-0.7,0-1.4-0.4-1.9-0.9s-0.7-1.2-0.7-2L44,61.6c0.1-1.5,1.4-2.6,2.8-2.6l2.5,0.1
		c1.5,0.1,2.6,1.4,2.6,2.8l-0.2,4.7c0,0.6-0.5,1-1.1,0.9c-0.6,0-1-0.5-0.9-1.1l0.2-4.7c0-0.4-0.3-0.7-0.7-0.7L46.7,61
		c-0.4,0-0.7,0.3-0.7,0.7l-0.7,14.3c0,0.2,0.1,0.4,0.2,0.5c0.1,0.1,0.3,0.2,0.5,0.2l2.5,0.1c0.2,0,0.4-0.1,0.5-0.2
		c0.1-0.1,0.2-0.3,0.2-0.5l0.2-4.3c0-0.6,0.5-1,1.1-0.9c0.6,0,1,0.5,0.9,1.1l-0.2,4.3c0,0.7-0.4,1.4-0.9,1.9
		C49.8,78.5,49.1,78.8,48.5,78.8z"/>
	<path d="M46.7,44.7c-0.5,0-0.9-0.3-1-0.8c-0.1-0.5,0.2-1.1,0.8-1.2l18.5-4c0.5-0.1,1.1,0.2,1.2,0.8c0.1,0.5-0.2,1.1-0.8,1.2
		l-18.5,4C46.9,44.7,46.8,44.7,46.7,44.7z"/>
	<path d="M47.8,49.5c-0.5,0-0.9-0.3-1-0.8c-0.1-0.5,0.2-1.1,0.8-1.2l18.5-4c0.5-0.1,1.1,0.2,1.2,0.8c0.1,0.5-0.2,1.1-0.8,1.2
		l-18.5,4C47.9,49.5,47.8,49.5,47.8,49.5z"/>
	<path d="M70.3,73.9C70.3,73.9,70.3,73.9,70.3,73.9l-21-1.1l0.4-7.2l20.9,1.1c0.6,0,1,0.5,0.9,1.1c0,0.6-0.5,1-1.1,0.9l-18.9-1
		l-0.2,3.2l18.9,1c0.6,0,1,0.5,0.9,1.1C71.3,73.5,70.8,73.9,70.3,73.9z"/>
	<path class="st8" d="M48.9,4.3"/>
</g>
</svg>
