<svg width="50" height="50" viewBox="0 0 50 50" fill="none" xmlns="http://www.w3.org/2000/svg">
<path d="M17 49C21.416 49 25 45.416 25 41V33H17C12.584 33 9 36.584 9 41C9 45.416 12.584 49 17 49Z" fill="#0ACF83"/>
<path d="M9 25C9 20.584 12.584 17 17 17H25V33H17C12.584 33 9 29.416 9 25Z" fill="#A259FF"/>
<path d="M9 9C9 4.584 12.584 1 17 1H25V17H17C12.584 17 9 13.416 9 9Z" fill="#F24E1E"/>
<path d="M25 1H33C37.416 1 41 4.584 41 9C41 13.416 37.416 17 33 17H25V1Z" fill="#FF7262"/>
<path d="M41 25C41 29.416 37.416 33 33 33C28.584 33 25 29.416 25 25C25 20.584 28.584 17 33 17C37.416 17 41 20.584 41 25Z" fill="#1ABCFE"/>
</svg>
