<svg width="50" height="50" viewBox="0 0 50 50" fill="none" xmlns="http://www.w3.org/2000/svg">
<g clip-path="url(#clip0_708_23952)">
<path d="M29.5602 36.9919L17.6892 31.918L19.1115 1.04785L49.3143 5.1789L42.3925 35.292L29.5602 36.9919Z" fill="#264DE4"/>
<path d="M40.3024 33.028L46.2174 7.29504L33.8718 5.60645L29.9333 34.4017L40.3024 33.028Z" fill="#2965F1"/>
<path d="M23.5244 15.7124L23.3518 19.4987L31.8131 20.656L32.3246 16.9161L23.5244 15.7124Z" fill="#EBEBEB"/>
<path d="M23.8792 8.05176L23.7113 11.8388L32.8488 13.0886L33.3603 9.34856L33.3472 9.34677L23.8792 8.05176Z" fill="#EBEBEB"/>
<path d="M30.9962 26.6294L30.979 26.6315L26.9218 24.9309L27.0606 21.9112L25.0144 21.6314L23.265 21.3921L22.9915 27.3369L30.4459 30.523L30.464 30.5206L30.9962 26.6294Z" fill="#EBEBEB"/>
<path d="M41.1009 18.1177L42.8188 10.6412L33.3472 9.3457L32.8356 13.0857L38.1635 13.8145L37.2957 17.5972L32.3118 16.9155L31.8003 20.6555L36.4562 21.2923L35.3539 26.0828L30.9828 26.6318L30.4506 30.5228L38.4927 29.4581L38.636 28.834L40.8712 19.1093L41.1009 18.1177Z" fill="white"/>
<path d="M30.3312 14.9603L31.1888 45.4738L19.3403 50.2853L6.72918 48.3808L0.424805 18.5088L30.3312 14.9603Z" fill="#E44D26"/>
<path d="M19.0539 47.7168L28.628 43.8288L27.8952 17.7536L15.6708 19.2041L19.0539 47.7168Z" fill="#F16529"/>
<path d="M11.2536 27.2379L16.55 26.6094L16.1106 22.9061L16.0977 22.9076L6.72253 24.02L6.93004 25.0029L9.06111 35.099L17.4394 34.1049L17 30.4016L12.0457 30.9895L11.2536 27.2379Z" fill="#EBEBEB"/>
<path d="M13.2062 36.4847L11.1801 36.7251L9.44788 36.9307L10.6623 42.6831L18.5814 43.879L18.5981 43.8723L18.141 40.0193L18.1251 40.0256L13.8232 39.4066L13.2062 36.4847Z" fill="#EBEBEB"/>
<path d="M17.426 34.108L22.0363 33.561L22.1716 38.4154L18.1281 40.0257L18.5853 43.8785L26.011 40.8637L25.993 40.2314L25.716 30.3774L25.6894 29.3722L24.6805 29.4919L16.9866 30.4048L17.426 34.108Z" fill="white"/>
<path d="M16.5357 26.6025L16.5368 26.6115L25.5683 25.5399L25.5803 25.5385L25.5566 24.6972L25.5045 22.7996L25.4761 21.7954L16.0974 22.9082L16.3703 25.2083L16.5357 26.6025Z" fill="white"/>
</g>
<defs>
<clipPath id="clip0_708_23952">
<rect width="50" height="50" fill="white"/>
</clipPath>
</defs>
</svg>
