<svg width="50" height="50" viewBox="0 0 50 50" fill="none" xmlns="http://www.w3.org/2000/svg">
<path d="M49.4013 23.6001L27.155 2.08375L24.999 0L0.598241 23.6001C-0.199414 24.3736 -0.199414 25.626 0.598241 26.398L15.8977 41.1949L24.999 49.9996L49.4013 26.398C50.1996 25.626 50.1996 24.3736 49.4013 23.6001V23.6001ZM24.999 32.3901L17.3577 25.0001L24.999 17.6074L32.6419 25.0001L24.999 32.3901Z" fill="#2684FF"/>
<path d="M24.9989 17.6077C19.9962 12.7671 19.9706 4.92718 24.9457 0.0581055L8.22046 16.2282L17.3239 25.033L24.9989 17.6077Z" fill="url(#paint0_linear_708_23997)"/>
<path d="M32.6632 24.9795L24.999 32.3905C27.4143 34.7244 28.7727 37.8923 28.7727 41.1953C28.7727 44.4982 27.4143 47.664 24.999 50L41.7645 33.7842L32.6632 24.9795V24.9795Z" fill="url(#paint1_linear_708_23997)"/>
<defs>
<linearGradient id="paint0_linear_708_23997" x1="21.7143" y1="11.9886" x2="13.2545" y2="20.7332" gradientUnits="userSpaceOnUse">
<stop stop-color="#0052CC"/>
<stop offset="1" stop-color="#2684FF"/>
</linearGradient>
<linearGradient id="paint1_linear_708_23997" x1="28.3782" y1="37.9294" x2="36.8209" y2="29.2002" gradientUnits="userSpaceOnUse">
<stop stop-color="#0052CC"/>
<stop offset="1" stop-color="#2684FF"/>
</linearGradient>
</defs>
</svg>
